# xmcd
#
# Track frame offsets: 
#        150
#        40425
#        74542
#        104902
#        132734
#        173736
#        219404
#        278057
#
# Disc length: 4030 seconds
#
# Revision: 1
# Processed by: cddbd v1.5.2PL0 Copyright (c) Steve Scherf et al.
# Submitted via: ExactAudioCopy v0.95b4
#
DISCID=830fbc08
DTITLE=Peter Johannesson - Sixtus
DYEAR=2001
DGENRE=Jazz
TTITLE0=Bleke
TTITLE1=Cyberman
TTITLE2=Sixtus
TTITLE3=Jojo
TTITLE4=Tranespotting
TTITLE5=The Garden
TTITLE6=Slowfox For Loners
TTITLE7=Sixtus (Live Trio)
EXTD=YEAR: 2001
EXTT0=
EXTT1=
EXTT2=
EXTT3=
EXTT4=
EXTT5=
EXTT6=
EXTT7=
PLAYORDER=
